STARTFONT 2.1
FONT -URW-ITC Bookman-Demi-R-Normal--14-140-72-72-P-84-ISO8859-1
SIZE 14 72 72
FONTBOUNDINGBOX 25 17 -6 -3

STARTPROPERTIES 22
FONTNAME_REGISTRY "-"
FOUNDRY "URW"
FAMILY_NAME "ITC Bookman"
WEIGHT_NAME "Demi"
SLANT "R"
SETWIDTH_NAME "Normal"
ADD_STYLE_NAME ""
PIXEL_SIZE 14
POINT_SIZE 140
RESOLUTION_X 72
RESOLUTION_Y 72
SPACING "P"
CHARSET_REGISTRY "ISO8859"
CHARSET_ENCODING "1"
FULL_NAME "Bookman-Demi"
AVERAGE_WIDTH 84
WEIGHT 10
X_HEIGHT 7
QUAD_WIDTH 10
DEFAULT_CHAR 32
FONT_DESCENT 3
FONT_ASCENT 14
ENDPROPERTIES

CHARS 190

STARTCHAR space
ENCODING 32
SWIDTH 340 0
DWIDTH 5 0
BBX 1 1 0 0
BITMAP
00
ENDCHAR

STARTCHAR exclam
ENCODING 33
SWIDTH 360 0
DWIDTH 5 0
BBX 2 10 2 0
BITMAP
C0
C0
C0
C0
C0
C0
C0
00
C0
C0
ENDCHAR

STARTCHAR quotedbl
ENCODING 34
SWIDTH 420 0
DWIDTH 6 0
BBX 5 4 0 6
BITMAP
D8
D8
D8
90
ENDCHAR

STARTCHAR numbersign
ENCODING 35
SWIDTH 660 0
DWIDTH 8 0
BBX 7 10 1 0
BITMAP
24
24
24
FE
28
FC
28
48
48
48
ENDCHAR

STARTCHAR dollar
ENCODING 36
SWIDTH 660 0
DWIDTH 9 0
BBX 7 13 1 -1
BITMAP
10
10
7C
C6
C0
E0
7C
0E
06
C6
FC
10
10
ENDCHAR

STARTCHAR percent
ENCODING 37
SWIDTH 940 0
DWIDTH 13 0
BBX 12 10 1 0
BITMAP
7080
8900
8B00
8A00
8CE0
7510
0910
1910
1110
20E0
ENDCHAR

STARTCHAR ampersand
ENCODING 38
SWIDTH 800 0
DWIDTH 11 0
BBX 10 10 1 0
BITMAP
3800
6400
6400
7FC0
7900
FD00
DD00
CE00
C700
79C0
ENDCHAR

STARTCHAR quoteright
ENCODING 39
SWIDTH 320 0
DWIDTH 4 0
BBX 2 4 1 6
BITMAP
C0
C0
40
80
ENDCHAR

STARTCHAR parenleft
ENCODING 40
SWIDTH 320 0
DWIDTH 4 0
BBX 3 12 1 -2
BITMAP
60
60
C0
C0
C0
C0
C0
C0
C0
C0
60
60
ENDCHAR

STARTCHAR parenright
ENCODING 41
SWIDTH 320 0
DWIDTH 4 0
BBX 3 12 0 -2
BITMAP
C0
C0
60
60
60
60
60
60
60
60
C0
C0
ENDCHAR

STARTCHAR asterisk
ENCODING 42
SWIDTH 460 0
DWIDTH 6 0
BBX 5 6 1 4
BITMAP
20
A8
F8
F8
A8
20
ENDCHAR

STARTCHAR plus
ENCODING 43
SWIDTH 600 0
DWIDTH 8 0
BBX 7 7 1 2
BITMAP
10
10
10
FE
10
10
10
ENDCHAR

STARTCHAR comma
ENCODING 44
SWIDTH 340 0
DWIDTH 5 0
BBX 2 4 1 -2
BITMAP
C0
C0
40
80
ENDCHAR

STARTCHAR minus
ENCODING 45
SWIDTH 600 0
DWIDTH 8 0
BBX 7 1 1 5
BITMAP
FE
ENDCHAR

STARTCHAR period
ENCODING 46
SWIDTH 340 0
DWIDTH 5 0
BBX 2 2 1 0
BITMAP
C0
C0
ENDCHAR

STARTCHAR slash
ENCODING 47
SWIDTH 600 0
DWIDTH 8 0
BBX 7 12 1 -2
BITMAP
06
04
0C
08
18
10
10
30
20
60
40
C0
ENDCHAR

STARTCHAR zero
ENCODING 48
SWIDTH 660 0
DWIDTH 9 0
BBX 8 10 1 0
BITMAP
3C
66
C3
C3
C3
C3
C3
C3
66
3C
ENDCHAR

STARTCHAR one
ENCODING 49
SWIDTH 660 0
DWIDTH 9 0
BBX 6 10 2 0
BITMAP
F0
30
30
30
30
30
30
30
30
FC
ENDCHAR

STARTCHAR two
ENCODING 50
SWIDTH 660 0
DWIDTH 9 0
BBX 7 10 1 0
BITMAP
7C
C6
C6
C6
0E
0C
10
62
FE
FC
ENDCHAR

STARTCHAR three
ENCODING 51
SWIDTH 660 0
DWIDTH 9 0
BBX 7 10 1 0
BITMAP
7C
C6
C6
C6
18
06
C6
C6
C6
78
ENDCHAR

STARTCHAR four
ENCODING 52
SWIDTH 660 0
DWIDTH 9 0
BBX 9 10 0 0
BITMAP
0600
0E00
1600
3600
2600
4600
FF80
0600
0600
0F00
ENDCHAR

STARTCHAR five
ENCODING 53
SWIDTH 660 0
DWIDTH 9 0
BBX 7 10 1 0
BITMAP
FC
FC
80
B8
CE
06
06
C6
CC
78
ENDCHAR

STARTCHAR six
ENCODING 54
SWIDTH 660 0
DWIDTH 9 0
BBX 8 10 1 0
BITMAP
3E
63
40
C0
DE
E7
C3
C3
67
3C
ENDCHAR

STARTCHAR seven
ENCODING 55
SWIDTH 660 0
DWIDTH 9 0
BBX 8 10 1 0
BITMAP
FF
FF
86
0E
1C
18
18
30
30
30
ENDCHAR

STARTCHAR eight
ENCODING 56
SWIDTH 660 0
DWIDTH 9 0
BBX 8 10 1 0
BITMAP
7C
C2
C2
F6
FC
FF
8F
83
C2
7C
ENDCHAR

STARTCHAR nine
ENCODING 57
SWIDTH 660 0
DWIDTH 9 0
BBX 8 10 1 0
BITMAP
3C
66
C3
C3
E7
7B
03
03
C6
7C
ENDCHAR

STARTCHAR colon
ENCODING 58
SWIDTH 340 0
DWIDTH 5 0
BBX 2 7 1 0
BITMAP
C0
C0
00
00
00
C0
C0
ENDCHAR

STARTCHAR semicolon
ENCODING 59
SWIDTH 340 0
DWIDTH 5 0
BBX 2 8 1 -2
BITMAP
C0
C0
00
00
C0
C0
40
80
ENDCHAR

STARTCHAR less
ENCODING 60
SWIDTH 600 0
DWIDTH 8 0
BBX 7 8 1 0
BITMAP
02
0E
38
E0
E0
38
0E
02
ENDCHAR

STARTCHAR equal
ENCODING 61
SWIDTH 600 0
DWIDTH 8 0
BBX 7 4 1 3
BITMAP
FE
00
00
FE
ENDCHAR

STARTCHAR greater
ENCODING 62
SWIDTH 600 0
DWIDTH 8 0
BBX 7 8 1 0
BITMAP
80
E0
38
0E
0E
38
E0
80
ENDCHAR

STARTCHAR question
ENCODING 63
SWIDTH 660 0
DWIDTH 9 0
BBX 7 10 1 0
BITMAP
7C
C6
C6
C6
0C
08
08
00
18
18
ENDCHAR

STARTCHAR at
ENCODING 64
SWIDTH 820 0
DWIDTH 11 0
BBX 10 10 1 0
BITMAP
1F00
2180
4040
9F40
B240
A280
BF40
4080
2180
1E00
ENDCHAR

STARTCHAR A
ENCODING 65
SWIDTH 720 0
DWIDTH 10 0
BBX 11 10 0 0
BITMAP
0600
0E00
0F00
1B00
1300
1F80
2180
2180
61C0
F3E0
ENDCHAR

STARTCHAR B
ENCODING 66
SWIDTH 720 0
DWIDTH 10 0
BBX 9 10 0 0
BITMAP
FF00
6380
6180
6180
7F00
6380
6180
6180
6380
FF00
ENDCHAR

STARTCHAR C
ENCODING 67
SWIDTH 740 0
DWIDTH 10 0
BBX 9 10 1 0
BITMAP
3F00
6300
4100
C080
C000
C000
C000
4080
6100
1E00
ENDCHAR

STARTCHAR D
ENCODING 68
SWIDTH 780 0
DWIDTH 11 0
BBX 9 10 1 0
BITMAP
FE00
6300
6380
6180
6180
6180
6180
6380
6300
FE00
ENDCHAR

STARTCHAR E
ENCODING 69
SWIDTH 720 0
DWIDTH 10 0
BBX 9 10 1 0
BITMAP
FF00
6300
6480
6400
7C00
6400
6480
6100
6300
FF00
ENDCHAR

STARTCHAR F
ENCODING 70
SWIDTH 680 0
DWIDTH 10 0
BBX 9 10 0 0
BITMAP
FF00
6300
6480
6400
7C00
6400
6400
6000
6000
F000
ENDCHAR

STARTCHAR G
ENCODING 71
SWIDTH 780 0
DWIDTH 11 0
BBX 10 10 1 0
BITMAP
1F00
6380
6080
C000
C000
C3C0
C180
C180
6380
3D80
ENDCHAR

STARTCHAR H
ENCODING 72
SWIDTH 820 0
DWIDTH 11 0
BBX 10 10 1 0
BITMAP
F3C0
6180
6180
6180
7F80
6180
6180
6180
6180
F3C0
ENDCHAR

STARTCHAR I
ENCODING 73
SWIDTH 400 0
DWIDTH 6 0
BBX 4 10 1 0
BITMAP
F0
60
60
60
60
60
60
60
60
F0
ENDCHAR

STARTCHAR J
ENCODING 74
SWIDTH 640 0
DWIDTH 9 0
BBX 8 10 0 0
BITMAP
0F
06
06
06
06
06
C6
C6
8E
7C
ENDCHAR

STARTCHAR K
ENCODING 75
SWIDTH 800 0
DWIDTH 11 0
BBX 11 10 0 0
BITMAP
F7C0
6380
6600
6C00
7C00
7C00
6600
6700
6380
F7E0
ENDCHAR

STARTCHAR L
ENCODING 76
SWIDTH 640 0
DWIDTH 9 0
BBX 8 10 1 0
BITMAP
F0
60
60
60
60
60
61
63
66
FE
ENDCHAR

STARTCHAR M
ENCODING 77
SWIDTH 940 0
DWIDTH 13 0
BBX 12 10 1 0
BITMAP
F0F0
70E0
79E0
5960
5960
5960
4E60
4E60
4E60
E4F0
ENDCHAR

STARTCHAR N
ENCODING 78
SWIDTH 740 0
DWIDTH 10 0
BBX 9 10 1 0
BITMAP
F380
7100
5900
5900
4D00
4D00
4700
4700
4300
E300
ENDCHAR

STARTCHAR O
ENCODING 79
SWIDTH 800 0
DWIDTH 11 0
BBX 10 10 1 0
BITMAP
1E00
6180
6080
C0C0
C0C0
C0C0
C0C0
6180
6180
1E00
ENDCHAR

STARTCHAR P
ENCODING 80
SWIDTH 660 0
DWIDTH 9 0
BBX 8 10 1 0
BITMAP
FE
67
63
63
67
7E
60
60
60
F0
ENDCHAR

STARTCHAR Q
ENCODING 81
SWIDTH 800 0
DWIDTH 11 0
BBX 10 13 1 -3
BITMAP
1E00
6180
6180
C0C0
C0C0
C0C0
C0C0
7F80
71C0
DEC0
C0C0
6180
3F00
ENDCHAR

STARTCHAR R
ENCODING 82
SWIDTH 780 0
DWIDTH 11 0
BBX 10 10 1 0
BITMAP
FF00
6180
6180
6380
7F00
6E00
6600
6300
6380
F1C0
ENDCHAR

STARTCHAR S
ENCODING 83
SWIDTH 660 0
DWIDTH 9 0
BBX 8 10 1 0
BITMAP
7C
C6
C2
E0
FC
3F
83
C3
62
5C
ENDCHAR

STARTCHAR T
ENCODING 84
SWIDTH 700 0
DWIDTH 10 0
BBX 10 10 0 0
BITMAP
7F80
4C80
8C40
0C00
0C00
0C00
0C00
0C00
0C00
1E00
ENDCHAR

STARTCHAR U
ENCODING 85
SWIDTH 740 0
DWIDTH 10 0
BBX 9 10 1 0
BITMAP
F380
6100
6100
6100
6100
6100
6100
6100
7300
3E00
ENDCHAR

STARTCHAR V
ENCODING 86
SWIDTH 720 0
DWIDTH 10 0
BBX 11 10 0 0
BITMAP
F9E0
7080
3180
1900
1900
1A00
0E00
0E00
0C00
0400
ENDCHAR

STARTCHAR W
ENCODING 87
SWIDTH 940 0
DWIDTH 13 0
BBX 14 10 0 0
BITMAP
F7BC
7710
3310
33A0
33A0
1DA0
1DC0
1DC0
08C0
0880
ENDCHAR

STARTCHAR X
ENCODING 88
SWIDTH 780 0
DWIDTH 11 0
BBX 11 10 0 0
BITMAP
FBC0
3980
3900
1E00
0E00
0E00
1700
3300
2380
F7E0
ENDCHAR

STARTCHAR Y
ENCODING 89
SWIDTH 700 0
DWIDTH 10 0
BBX 10 10 0 0
BITMAP
FBC0
7100
3B00
1A00
1E00
0C00
0C00
0C00
0C00
1E00
ENDCHAR

STARTCHAR Z
ENCODING 90
SWIDTH 640 0
DWIDTH 9 0
BBX 8 10 0 0
BITMAP
7F
46
8E
0C
18
18
30
61
63
FE
ENDCHAR

STARTCHAR bracketleft
ENCODING 91
SWIDTH 300 0
DWIDTH 4 0
BBX 3 12 1 -2
BITMAP
E0
C0
C0
C0
C0
C0
C0
C0
C0
C0
C0
E0
ENDCHAR

STARTCHAR backslash
ENCODING 92
SWIDTH 600 0
DWIDTH 8 0
BBX 7 12 1 -2
BITMAP
C0
40
60
20
30
10
10
08
08
0C
04
06
ENDCHAR

STARTCHAR bracketright
ENCODING 93
SWIDTH 300 0
DWIDTH 4 0
BBX 3 12 0 -2
BITMAP
E0
60
60
60
60
60
60
60
60
60
60
E0
ENDCHAR

STARTCHAR asciicircum
ENCODING 94
SWIDTH 600 0
DWIDTH 8 0
BBX 7 6 1 4
BITMAP
10
38
28
6C
44
C6
ENDCHAR

STARTCHAR underscore
ENCODING 95
SWIDTH 500 0
DWIDTH 7 0
BBX 7 1 0 -2
BITMAP
FE
ENDCHAR

STARTCHAR quoteleft
ENCODING 96
SWIDTH 320 0
DWIDTH 4 0
BBX 2 4 1 6
BITMAP
40
80
C0
C0
ENDCHAR

STARTCHAR a
ENCODING 97
SWIDTH 580 0
DWIDTH 8 0
BBX 7 7 1 0
BITMAP
78
CC
3C
FC
CC
CC
7E
ENDCHAR

STARTCHAR b
ENCODING 98
SWIDTH 600 0
DWIDTH 8 0
BBX 8 10 0 0
BITMAP
E0
60
60
7C
62
63
63
63
66
7E
ENDCHAR

STARTCHAR c
ENCODING 99
SWIDTH 580 0
DWIDTH 8 0
BBX 7 7 1 0
BITMAP
3C
66
C6
C0
C0
66
3C
ENDCHAR

STARTCHAR d
ENCODING 100
SWIDTH 640 0
DWIDTH 9 0
BBX 8 10 1 0
BITMAP
0E
06
06
3E
66
C6
C6
C6
E6
7F
ENDCHAR

STARTCHAR e
ENCODING 101
SWIDTH 580 0
DWIDTH 8 0
BBX 6 7 1 0
BITMAP
78
CC
CC
FC
C0
44
78
ENDCHAR

STARTCHAR f
ENCODING 102
SWIDTH 380 0
DWIDTH 5 0
BBX 6 10 0 0
BITMAP
3C
6C
60
F0
60
60
60
60
60
F0
ENDCHAR

STARTCHAR g
ENCODING 103
SWIDTH 580 0
DWIDTH 8 0
BBX 8 11 0 -3
BITMAP
03
3C
66
66
66
3C
40
7F
FF
83
7E
ENDCHAR

STARTCHAR h
ENCODING 104
SWIDTH 680 0
DWIDTH 10 0
BBX 8 10 1 0
BITMAP
E0
60
60
7C
66
66
66
66
66
FF
ENDCHAR

STARTCHAR i
ENCODING 105
SWIDTH 360 0
DWIDTH 5 0
BBX 4 10 1 0
BITMAP
60
60
00
E0
60
60
60
60
60
F0
ENDCHAR

STARTCHAR j
ENCODING 106
SWIDTH 340 0
DWIDTH 5 0
BBX 5 13 0 -3
BITMAP
18
18
00
38
18
18
18
18
18
18
18
D8
F0
ENDCHAR

STARTCHAR k
ENCODING 107
SWIDTH 660 0
DWIDTH 9 0
BBX 9 10 0 0
BITMAP
E000
6000
6000
6F00
6400
6800
7C00
7E00
6600
EF80
ENDCHAR

STARTCHAR l
ENCODING 108
SWIDTH 340 0
DWIDTH 5 0
BBX 4 10 0 0
BITMAP
E0
60
60
60
60
60
60
60
60
F0
ENDCHAR

STARTCHAR m
ENCODING 109
SWIDTH 1000 0
DWIDTH 14 0
BBX 12 7 1 0
BITMAP
FDC0
6660
6660
6660
6660
6660
FFF0
ENDCHAR

STARTCHAR n
ENCODING 110
SWIDTH 680 0
DWIDTH 10 0
BBX 8 7 1 0
BITMAP
FC
66
66
66
66
66
FF
ENDCHAR

STARTCHAR o
ENCODING 111
SWIDTH 620 0
DWIDTH 9 0
BBX 7 7 1 0
BITMAP
78
C4
C6
C6
C6
44
38
ENDCHAR

STARTCHAR p
ENCODING 112
SWIDTH 640 0
DWIDTH 9 0
BBX 8 10 0 -3
BITMAP
FE
67
63
63
63
66
7C
60
60
F0
ENDCHAR

STARTCHAR q
ENCODING 113
SWIDTH 620 0
DWIDTH 9 0
BBX 8 10 1 -3
BITMAP
7E
E6
C6
C6
C6
46
3E
06
06
0F
ENDCHAR

STARTCHAR r
ENCODING 114
SWIDTH 460 0
DWIDTH 6 0
BBX 6 7 0 0
BITMAP
EC
7C
60
60
60
60
F0
ENDCHAR

STARTCHAR s
ENCODING 115
SWIDTH 520 0
DWIDTH 7 0
BBX 7 7 0 0
BITMAP
7C
CC
E0
FC
1E
C6
FC
ENDCHAR

STARTCHAR t
ENCODING 116
SWIDTH 460 0
DWIDTH 6 0
BBX 6 9 0 0
BITMAP
20
60
F8
60
60
60
60
64
78
ENDCHAR

STARTCHAR u
ENCODING 117
SWIDTH 660 0
DWIDTH 9 0
BBX 8 7 1 0
BITMAP
EE
EE
66
66
66
66
7F
ENDCHAR

STARTCHAR v
ENCODING 118
SWIDTH 600 0
DWIDTH 8 0
BBX 8 7 0 0
BITMAP
F7
63
34
34
1C
18
08
ENDCHAR

STARTCHAR w
ENCODING 119
SWIDTH 800 0
DWIDTH 11 0
BBX 11 7 0 0
BITMAP
FFE0
6640
6640
2780
3B80
1B80
1900
ENDCHAR

STARTCHAR x
ENCODING 120
SWIDTH 600 0
DWIDTH 8 0
BBX 8 7 0 0
BITMAP
F7
76
3C
18
2C
6E
EF
ENDCHAR

STARTCHAR y
ENCODING 121
SWIDTH 620 0
DWIDTH 9 0
BBX 9 10 0 -3
BITMAP
F780
6200
3400
3400
1C00
1800
1800
1000
D000
E000
ENDCHAR

STARTCHAR z
ENCODING 122
SWIDTH 560 0
DWIDTH 8 0
BBX 7 7 0 0
BITMAP
7E
CC
1C
38
72
E6
FC
ENDCHAR

STARTCHAR braceleft
ENCODING 123
SWIDTH 320 0
DWIDTH 4 0
BBX 3 12 1 -2
BITMAP
60
40
40
40
40
C0
C0
40
40
40
40
60
ENDCHAR

STARTCHAR bar
ENCODING 124
SWIDTH 600 0
DWIDTH 8 0
BBX 1 10 4 0
BITMAP
80
80
80
80
80
80
80
80
80
80
ENDCHAR

STARTCHAR braceright
ENCODING 125
SWIDTH 320 0
DWIDTH 4 0
BBX 3 12 1 -2
BITMAP
C0
40
40
40
40
60
60
40
40
40
40
C0
ENDCHAR

STARTCHAR asciitilde
ENCODING 126
SWIDTH 600 0
DWIDTH 8 0
BBX 7 2 1 2
BITMAP
72
9C
ENDCHAR

STARTCHAR exclamdown
ENCODING 161
SWIDTH 360 0
DWIDTH 5 0
BBX 2 10 2 -3
BITMAP
C0
C0
00
C0
C0
C0
C0
C0
C0
C0
ENDCHAR

STARTCHAR cent
ENCODING 162
SWIDTH 660 0
DWIDTH 9 0
BBX 5 9 2 1
BITMAP
20
20
78
D8
C0
C8
70
20
20
ENDCHAR

STARTCHAR sterling
ENCODING 163
SWIDTH 660 0
DWIDTH 9 0
BBX 10 10 0 0
BITMAP
1F00
3080
6080
6080
FE00
3000
3800
F8C0
BC40
F380
ENDCHAR

STARTCHAR currency
ENCODING 164
SWIDTH 660 0
DWIDTH 8 0
BBX 6 6 1 1
BITMAP
B4
48
84
84
48
B4
ENDCHAR

STARTCHAR yen
ENCODING 165
SWIDTH 660 0
DWIDTH 9 0
BBX 10 10 0 0
BITMAP
FBC0
7180
3100
1A00
7B80
0C00
7F80
0C00
0C00
1E00
ENDCHAR

STARTCHAR brokenbar
ENCODING 166
SWIDTH 600 0
DWIDTH 8 0
BBX 1 10 4 0
BITMAP
80
80
80
80
00
00
80
80
80
80
ENDCHAR

STARTCHAR section
ENCODING 167
SWIDTH 600 0
DWIDTH 8 0
BBX 7 12 1 -2
BITMAP
7C
C6
C0
F0
7C
C6
C6
7C
1E
C6
C6
78
ENDCHAR

STARTCHAR dieresis
ENCODING 168
SWIDTH 500 0
DWIDTH 7 0
BBX 5 2 1 8
BITMAP
D8
D8
ENDCHAR

STARTCHAR copyright
ENCODING 169
SWIDTH 740 0
DWIDTH 10 0
BBX 10 10 0 0
BITMAP
1E00
6180
4F80
9340
9140
9040
9140
4E80
6180
1E00
ENDCHAR

STARTCHAR ordfeminine
ENCODING 170
SWIDTH 400 0
DWIDTH 6 0
BBX 5 7 0 3
BITMAP
F0
10
70
90
F8
00
F8
ENDCHAR

STARTCHAR guillemotleft
ENCODING 171
SWIDTH 400 0
DWIDTH 6 0
BBX 4 5 1 1
BITMAP
50
E0
A0
50
50
ENDCHAR

STARTCHAR logicalnot
ENCODING 172
SWIDTH 600 0
DWIDTH 8 0
BBX 7 4 1 1
BITMAP
FE
02
02
02
ENDCHAR

STARTCHAR hyphen
ENCODING 173
SWIDTH 360 0
DWIDTH 5 0
BBX 4 1 1 3
BITMAP
F0
ENDCHAR

STARTCHAR registered
ENCODING 174
SWIDTH 740 0
DWIDTH 10 0
BBX 10 10 0 0
BITMAP
1E00
6180
7E80
9240
9E40
9C40
9640
7B80
6180
1E00
ENDCHAR

STARTCHAR macron
ENCODING 175
SWIDTH 460 0
DWIDTH 6 0
BBX 4 1 1 9
BITMAP
F0
ENDCHAR

STARTCHAR degree
ENCODING 176
SWIDTH 400 0
DWIDTH 6 0
BBX 5 5 0 5
BITMAP
70
88
88
88
70
ENDCHAR

STARTCHAR plusminus
ENCODING 177
SWIDTH 600 0
DWIDTH 8 0
BBX 7 7 1 0
BITMAP
10
10
FE
10
10
00
FE
ENDCHAR

STARTCHAR twosuperior
ENCODING 178
SWIDTH 396 0
DWIDTH 6 0
BBX 4 6 -5 4
BITMAP
60
90
90
20
50
F0
ENDCHAR

STARTCHAR threesuperior
ENCODING 179
SWIDTH 396 0
DWIDTH 6 0
BBX 3 6 -6 4
BITMAP
E0
A0
40
20
A0
E0
ENDCHAR

STARTCHAR acute
ENCODING 180
SWIDTH 400 0
DWIDTH 6 0
BBX 4 3 1 7
BITMAP
30
70
C0
ENDCHAR

STARTCHAR mu
ENCODING 181
SWIDTH 660 0
DWIDTH 9 0
BBX 8 10 1 -3
BITMAP
EE
EE
66
66
66
66
7F
40
60
60
ENDCHAR

STARTCHAR paragraph
ENCODING 182
SWIDTH 800 0
DWIDTH 11 0
BBX 10 11 0 -1
BITMAP
7FC0
FD80
FD80
FD80
FD80
7D80
0D80
0D80
0D80
0D80
1FC0
ENDCHAR

STARTCHAR periodcentered
ENCODING 183
SWIDTH 340 0
DWIDTH 7 0
BBX 3 3 2 3
BITMAP
E0
E0
E0
ENDCHAR

STARTCHAR cedilla
ENCODING 184
SWIDTH 360 0
DWIDTH 5 0
BBX 3 3 1 -3
BITMAP
60
20
E0
ENDCHAR

STARTCHAR onesuperior
ENCODING 185
SWIDTH 396 0
DWIDTH 6 0
BBX 3 6 -6 4
BITMAP
C0
40
40
40
40
E0
ENDCHAR

STARTCHAR ordmasculine
ENCODING 186
SWIDTH 400 0
DWIDTH 6 0
BBX 4 6 1 4
BITMAP
60
90
90
90
60
F0
ENDCHAR

STARTCHAR guillemotright
ENCODING 187
SWIDTH 400 0
DWIDTH 6 0
BBX 4 5 1 1
BITMAP
A0
70
50
A0
A0
ENDCHAR

STARTCHAR onequarter
ENCODING 188
SWIDTH 990 0
DWIDTH 13 0
BBX 11 10 -6 0
BITMAP
C080
4100
4300
4200
4440
E4C0
0940
1A40
13E0
2040
ENDCHAR

STARTCHAR onehalf
ENCODING 189
SWIDTH 990 0
DWIDTH 13 0
BBX 11 10 -6 0
BITMAP
C080
4100
4300
4200
44C0
E520
0920
1840
10A0
21E0
ENDCHAR

STARTCHAR threequarters
ENCODING 190
SWIDTH 990 0
DWIDTH 13 0
BBX 11 10 -6 0
BITMAP
E080
A100
4300
2200
A440
E4C0
0940
1A40
13E0
2040
ENDCHAR

STARTCHAR questiondown
ENCODING 191
SWIDTH 660 0
DWIDTH 9 0
BBX 8 10 1 -3
BITMAP
18
18
00
10
10
60
C3
C3
C3
7C
ENDCHAR

STARTCHAR Agrave
ENCODING 192
SWIDTH 720 0
DWIDTH 10 0
BBX 11 14 0 0
BITMAP
1800
1C00
0600
0000
0600
0E00
0F00
1B00
1300
1F80
2180
2180
61C0
F3E0
ENDCHAR

STARTCHAR Aacute
ENCODING 193
SWIDTH 720 0
DWIDTH 10 0
BBX 11 14 0 0
BITMAP
0600
0E00
1800
0000
0600
0E00
0F00
1B00
1300
1F80
2180
2180
61C0
F3E0
ENDCHAR

STARTCHAR Acircumflex
ENCODING 194
SWIDTH 720 0
DWIDTH 10 0
BBX 11 14 0 0
BITMAP
0400
0F00
1900
0000
0600
0E00
0F00
1B00
1300
1F80
2180
2180
61C0
F3E0
ENDCHAR

STARTCHAR Atilde
ENCODING 195
SWIDTH 720 0
DWIDTH 10 0
BBX 11 13 0 0
BITMAP
0F00
1E00
0000
0600
0E00
0F00
1B00
1300
1F80
2180
2180
61C0
F3E0
ENDCHAR

STARTCHAR Adieresis
ENCODING 196
SWIDTH 720 0
DWIDTH 10 0
BBX 11 13 0 0
BITMAP
1B00
1B00
0000
0600
0E00
0F00
1B00
1300
1F80
2180
2180
61C0
F3E0
ENDCHAR

STARTCHAR Aring
ENCODING 197
SWIDTH 720 0
DWIDTH 10 0
BBX 11 13 0 0
BITMAP
0600
0600
0000
0600
0E00
0F00
1B00
1300
1F80
2180
2180
61C0
F3E0
ENDCHAR

STARTCHAR AE
ENCODING 198
SWIDTH 1140 0
DWIDTH 16 0
BBX 16 10 0 0
BITMAP
00FE
01C2
02C9
06C8
04F8
0FC8
18C9
10C3
70C6
F9FE
ENDCHAR

STARTCHAR Ccedilla
ENCODING 199
SWIDTH 740 0
DWIDTH 10 0
BBX 9 13 1 -3
BITMAP
3F00
6300
4100
C080
C000
C000
C000
4080
6100
1E00
0C00
0400
1C00
ENDCHAR

STARTCHAR Egrave
ENCODING 200
SWIDTH 720 0
DWIDTH 10 0
BBX 9 14 1 0
BITMAP
3000
3800
0C00
0000
FF00
6300
6480
6400
7C00
6400
6480
6100
6300
FF00
ENDCHAR

STARTCHAR Eacute
ENCODING 201
SWIDTH 720 0
DWIDTH 10 0
BBX 9 14 1 0
BITMAP
0C00
1C00
3000
0000
FF00
6300
6480
6400
7C00
6400
6480
6100
6300
FF00
ENDCHAR

STARTCHAR Ecircumflex
ENCODING 202
SWIDTH 720 0
DWIDTH 10 0
BBX 9 14 1 0
BITMAP
0800
1C00
3600
0000
FF00
6300
6480
6400
7C00
6400
6480
6100
6300
FF00
ENDCHAR

STARTCHAR Edieresis
ENCODING 203
SWIDTH 720 0
DWIDTH 10 0
BBX 9 13 1 0
BITMAP
3600
3600
0000
FF00
6300
6480
6400
7C00
6400
6480
6100
6300
FF00
ENDCHAR

STARTCHAR Igrave
ENCODING 204
SWIDTH 400 0
DWIDTH 6 0
BBX 4 14 1 0
BITMAP
C0
E0
30
00
F0
60
60
60
60
60
60
60
60
F0
ENDCHAR

STARTCHAR Iacute
ENCODING 205
SWIDTH 400 0
DWIDTH 6 0
BBX 4 14 1 0
BITMAP
30
70
C0
00
F0
60
60
60
60
60
60
60
60
F0
ENDCHAR

STARTCHAR Icircumflex
ENCODING 206
SWIDTH 400 0
DWIDTH 6 0
BBX 5 14 2 0
BITMAP
20
78
C8
00
78
30
30
30
30
30
30
30
30
78
ENDCHAR

STARTCHAR Idieresis
ENCODING 207
SWIDTH 400 0
DWIDTH 6 0
BBX 5 13 1 0
BITMAP
D8
D8
00
F0
60
60
60
60
60
60
60
60
F0
ENDCHAR

STARTCHAR Eth
ENCODING 208
SWIDTH 780 0
DWIDTH 11 0
BBX 9 10 1 0
BITMAP
FE00
6300
6380
6180
F980
6180
6180
6380
6300
FE00
ENDCHAR

STARTCHAR Ntilde
ENCODING 209
SWIDTH 740 0
DWIDTH 10 0
BBX 9 13 1 0
BITMAP
1900
2E00
0000
F380
7100
5900
5900
4D00
4D00
4700
4700
4300
E300
ENDCHAR

STARTCHAR Ograve
ENCODING 210
SWIDTH 800 0
DWIDTH 11 0
BBX 10 14 1 0
BITMAP
1800
1C00
0600
0000
1E00
6180
6080
C0C0
C0C0
C0C0
C0C0
6180
6180
1E00
ENDCHAR

STARTCHAR Oacute
ENCODING 211
SWIDTH 800 0
DWIDTH 11 0
BBX 10 14 1 0
BITMAP
0600
0E00
1800
0000
1E00
6180
6080
C0C0
C0C0
C0C0
C0C0
6180
6180
1E00
ENDCHAR

STARTCHAR Ocircumflex
ENCODING 212
SWIDTH 800 0
DWIDTH 11 0
BBX 10 14 1 0
BITMAP
0800
1E00
3200
0000
1E00
6180
6080
C0C0
C0C0
C0C0
C0C0
6180
6180
1E00
ENDCHAR

STARTCHAR Otilde
ENCODING 213
SWIDTH 800 0
DWIDTH 11 0
BBX 10 13 1 0
BITMAP
0F00
1E00
0000
1E00
6180
6080
C0C0
C0C0
C0C0
C0C0
6180
6180
1E00
ENDCHAR

STARTCHAR Odieresis
ENCODING 214
SWIDTH 800 0
DWIDTH 11 0
BBX 10 13 1 0
BITMAP
1B00
1B00
0000
1E00
6180
6080
C0C0
C0C0
C0C0
C0C0
6180
6180
1E00
ENDCHAR

STARTCHAR multiply
ENCODING 215
SWIDTH 600 0
DWIDTH 8 0
BBX 6 6 1 2
BITMAP
C4
4C
30
30
C8
8C
ENDCHAR

STARTCHAR Oslash
ENCODING 216
SWIDTH 800 0
DWIDTH 11 0
BBX 10 13 1 -1
BITMAP
0080
0080
1F00
6180
6280
C2C0
C4C0
C4C0
C8C0
6980
7180
1E00
2000
ENDCHAR

STARTCHAR Ugrave
ENCODING 217
SWIDTH 740 0
DWIDTH 10 0
BBX 9 14 1 0
BITMAP
3000
3800
0C00
0000
F380
6100
6100
6100
6100
6100
6100
6100
7300
3E00
ENDCHAR

STARTCHAR Uacute
ENCODING 218
SWIDTH 740 0
DWIDTH 10 0
BBX 9 14 1 0
BITMAP
0C00
1C00
3000
0000
F380
6100
6100
6100
6100
6100
6100
6100
7300
3E00
ENDCHAR

STARTCHAR Ucircumflex
ENCODING 219
SWIDTH 740 0
DWIDTH 10 0
BBX 9 14 1 0
BITMAP
0C00
1E00
3300
0000
F380
6100
6100
6100
6100
6100
6100
6100
7300
3E00
ENDCHAR

STARTCHAR Udieresis
ENCODING 220
SWIDTH 740 0
DWIDTH 10 0
BBX 9 13 1 0
BITMAP
3600
3600
0000
F380
6100
6100
6100
6100
6100
6100
6100
7300
3E00
ENDCHAR

STARTCHAR Yacute
ENCODING 221
SWIDTH 700 0
DWIDTH 10 0
BBX 10 14 0 0
BITMAP
0600
0E00
1800
0000
FBC0
7100
3B00
1A00
1E00
0C00
0C00
0C00
0C00
1E00
ENDCHAR

STARTCHAR Thorn
ENCODING 222
SWIDTH 660 0
DWIDTH 9 0
BBX 8 10 1 0
BITMAP
F0
60
60
7E
63
63
63
7E
60
F0
ENDCHAR

STARTCHAR germandbls
ENCODING 223
SWIDTH 660 0
DWIDTH 9 0
BBX 9 11 0 -1
BITMAP
1E00
3300
3300
7E00
3F00
3180
3180
3180
3300
3E00
E000
ENDCHAR

STARTCHAR agrave
ENCODING 224
SWIDTH 580 0
DWIDTH 8 0
BBX 7 11 1 0
BITMAP
60
70
18
00
78
CC
3C
FC
CC
CC
7E
ENDCHAR

STARTCHAR aacute
ENCODING 225
SWIDTH 580 0
DWIDTH 8 0
BBX 7 11 1 0
BITMAP
18
38
60
00
78
CC
3C
FC
CC
CC
7E
ENDCHAR

STARTCHAR acircumflex
ENCODING 226
SWIDTH 580 0
DWIDTH 8 0
BBX 7 11 1 0
BITMAP
10
38
44
00
78
CC
3C
FC
CC
CC
7E
ENDCHAR

STARTCHAR atilde
ENCODING 227
SWIDTH 580 0
DWIDTH 8 0
BBX 7 10 1 0
BITMAP
3A
4C
00
78
CC
3C
FC
CC
CC
7E
ENDCHAR

STARTCHAR adieresis
ENCODING 228
SWIDTH 580 0
DWIDTH 8 0
BBX 7 10 1 0
BITMAP
6C
6C
00
78
CC
3C
FC
CC
CC
7E
ENDCHAR

STARTCHAR aring
ENCODING 229
SWIDTH 580 0
DWIDTH 8 0
BBX 7 10 1 0
BITMAP
38
28
38
78
CC
3C
FC
CC
CC
7E
ENDCHAR

STARTCHAR ae
ENCODING 230
SWIDTH 880 0
DWIDTH 12 0
BBX 11 7 1 0
BITMAP
7FC0
E660
0660
7FE0
E600
CE20
7FC0
ENDCHAR

STARTCHAR ccedilla
ENCODING 231
SWIDTH 580 0
DWIDTH 8 0
BBX 7 10 1 -3
BITMAP
3C
66
C6
C0
C0
66
3C
18
08
38
ENDCHAR

STARTCHAR egrave
ENCODING 232
SWIDTH 580 0
DWIDTH 8 0
BBX 6 11 1 0
BITMAP
60
70
18
00
78
CC
CC
FC
C0
44
78
ENDCHAR

STARTCHAR eacute
ENCODING 233
SWIDTH 580 0
DWIDTH 8 0
BBX 6 11 1 0
BITMAP
18
38
60
00
78
CC
CC
FC
C0
44
78
ENDCHAR

STARTCHAR ecircumflex
ENCODING 234
SWIDTH 580 0
DWIDTH 8 0
BBX 6 11 1 0
BITMAP
20
78
C8
00
78
CC
CC
FC
C0
44
78
ENDCHAR

STARTCHAR edieresis
ENCODING 235
SWIDTH 580 0
DWIDTH 8 0
BBX 6 10 1 0
BITMAP
6C
6C
00
78
CC
CC
FC
C0
44
78
ENDCHAR

STARTCHAR igrave
ENCODING 236
SWIDTH 360 0
DWIDTH 5 0
BBX 4 11 1 0
BITMAP
C0
E0
30
00
E0
E0
60
60
60
60
F0
ENDCHAR

STARTCHAR iacute
ENCODING 237
SWIDTH 360 0
DWIDTH 5 0
BBX 4 11 1 0
BITMAP
30
70
C0
00
E0
E0
60
60
60
60
F0
ENDCHAR

STARTCHAR icircumflex
ENCODING 238
SWIDTH 360 0
DWIDTH 5 0
BBX 5 11 1 0
BITMAP
20
70
88
00
E0
E0
60
60
60
60
F0
ENDCHAR

STARTCHAR idieresis
ENCODING 239
SWIDTH 360 0
DWIDTH 5 0
BBX 5 10 1 0
BITMAP
D8
D8
00
E0
E0
60
60
60
60
F0
ENDCHAR

STARTCHAR eth
ENCODING 240
SWIDTH 620 0
DWIDTH 9 0
BBX 7 11 1 0
BITMAP
10
E0
D8
0C
3C
46
C6
C6
C6
44
38
ENDCHAR

STARTCHAR ntilde
ENCODING 241
SWIDTH 680 0
DWIDTH 10 0
BBX 8 10 1 0
BITMAP
1E
3C
00
FC
66
66
66
66
66
FF
ENDCHAR

STARTCHAR ograve
ENCODING 242
SWIDTH 620 0
DWIDTH 9 0
BBX 7 11 1 0
BITMAP
60
70
18
00
78
C4
C6
C6
C6
44
38
ENDCHAR

STARTCHAR oacute
ENCODING 243
SWIDTH 620 0
DWIDTH 9 0
BBX 7 11 1 0
BITMAP
18
38
60
00
78
C4
C6
C6
C6
44
38
ENDCHAR

STARTCHAR ocircumflex
ENCODING 244
SWIDTH 620 0
DWIDTH 9 0
BBX 7 11 1 0
BITMAP
10
3C
64
00
78
C4
C6
C6
C6
44
38
ENDCHAR

STARTCHAR otilde
ENCODING 245
SWIDTH 620 0
DWIDTH 9 0
BBX 7 10 1 0
BITMAP
3C
78
00
78
C4
C6
C6
C6
44
38
ENDCHAR

STARTCHAR odieresis
ENCODING 246
SWIDTH 620 0
DWIDTH 9 0
BBX 7 10 1 0
BITMAP
6C
6C
00
78
C4
C6
C6
C6
44
38
ENDCHAR

STARTCHAR divide
ENCODING 247
SWIDTH 600 0
DWIDTH 8 0
BBX 6 7 1 2
BITMAP
30
30
00
FC
00
30
30
ENDCHAR

STARTCHAR oslash
ENCODING 248
SWIDTH 620 0
DWIDTH 9 0
BBX 7 8 1 0
BITMAP
06
7C
CC
D6
F6
E6
44
F8
ENDCHAR

STARTCHAR ugrave
ENCODING 249
SWIDTH 660 0
DWIDTH 9 0
BBX 8 11 1 0
BITMAP
30
38
0C
00
EE
EE
66
66
66
66
7F
ENDCHAR

STARTCHAR uacute
ENCODING 250
SWIDTH 660 0
DWIDTH 9 0
BBX 8 11 1 0
BITMAP
0C
1C
30
00
EE
EE
66
66
66
66
7F
ENDCHAR

STARTCHAR ucircumflex
ENCODING 251
SWIDTH 660 0
DWIDTH 9 0
BBX 8 11 1 0
BITMAP
10
3C
64
00
EE
EE
66
66
66
66
7F
ENDCHAR

STARTCHAR udieresis
ENCODING 252
SWIDTH 660 0
DWIDTH 9 0
BBX 8 10 1 0
BITMAP
6C
6C
00
EE
EE
66
66
66
66
7F
ENDCHAR

STARTCHAR yacute
ENCODING 253
SWIDTH 620 0
DWIDTH 9 0
BBX 9 14 0 -3
BITMAP
0C00
1C00
3000
0000
F780
6200
3400
3400
1C00
1800
1800
1000
D000
E000
ENDCHAR

STARTCHAR thorn
ENCODING 254
SWIDTH 640 0
DWIDTH 9 0
BBX 8 13 0 -3
BITMAP
E0
60
60
7E
67
63
63
63
66
7C
60
60
F0
ENDCHAR

STARTCHAR ydieresis
ENCODING 255
SWIDTH 620 0
DWIDTH 9 0
BBX 9 13 0 -3
BITMAP
3600
3600
0000
F780
6200
3400
3400
1C00
1800
1800
1000
D000
E000
ENDCHAR
ENDFONT
